<?xml version="1.0" encoding="UTF-8" standalone="no"?>
<!-- Created with Inkscape (http://www.inkscape.org/) -->

<svg
   width="57.955021mm"
   height="22.041969mm"
   viewBox="0 0 57.955021 22.041969"
   version="1.1"
   id="svg1"
   xmlns="http://www.w3.org/2000/svg"
   xmlns:svg="http://www.w3.org/2000/svg">
  <defs
     id="defs1" />
  <g
     id="layer1"
     transform="translate(-362.86143,-221.05824)">
    <path
       id="path41-3-9-5-1-3-7-8"
       style="fill:#000000"
       d="m 404.20516,221.05825 -12.46642,0.0114 0.002,2.0004 5.11028,-0.005 -0.0129,20.0148 1.99988,0.002 0.0134,-20.01894 5.35574,-0.005 z m 2.73059,3.94395 v 0.0393 l -0.0295,-5.2e-4 c -0.005,0.26945 0.007,0.54936 0.0253,0.83354 l -0.0817,17.18706 1.99988,0.008 0.0233,-4.85035 3.49436,-0.032 c 2.30717,2.80861 5.19874,4.93037 8.44909,4.91288 l -0.01,-1.99987 c -2.83364,0.0152 -5.90807,-2.52781 -8.20104,-5.94176 -2.09469,-3.11874 -3.48108,-6.90219 -3.67368,-9.40356 l 0.004,-0.74259 z m -16.14062,0.01 c -0.38141,-0.002 -1.18857,0.0142 -1.97456,0.032 v -0.0124 h -1.99987 v 0.0615 l -0.016,5.1e-4 0.016,0.31781 v 17.65629 h 1.99987 v -15.99488 l 1.6335,-5.2e-4 c 0.93804,-0.0453 1.26142,0.70681 1.26142,2.62052 0,1.41579 -0.32402,2.51344 -1.6428,3.05821 -0.63489,0.36495 -0.45959,0.74688 -0.4687,1.40095 -0.0131,0.94197 0.16931,2.49049 0.74052,4.70513 0.59764,2.31722 1.2883,4.16668 1.2883,4.16668 l 2.01176,-0.008 c 0,0 -0.81253,-2.41952 -1.38803,-4.65088 -0.24239,-0.93976 -0.77197,-3.12962 -0.68575,-4.02301 0.017,-0.17617 1.2892,-0.88048 1.63298,-1.93219 0.34378,-1.05171 0.48627,-1.66963 0.48627,-2.71663 -0.008,-1.52211 0.0898,-2.8264 -0.89968,-4.04626 -0.26126,-0.32208 -0.82387,-0.62872 -1.99523,-0.63459 z m -11.10527,0.0155 v 0.0119 l -1.79678,-0.002 -0.0274,18.00562 1.95905,0.002 v 0.002 l 5.0953,-0.004 -0.002,-1.99988 -5.04982,0.004 0.0114,-7.64398 10e-4,0.80977 2.61121,-0.004 -0.004,-2.00039 -2.60656,0.004 0.008,-5.1847 5.03019,0.0227 0.008,-2.0004 z m -16.82843,0.0134 0.006,18.02164 h 1.99987 l -0.006,-18.02164 z m 10.0335,0.0176 -0.0114,10.56473 -2.95951,-10.55853 -0.0429,0.0119 v -0.016 l -1.99988,0.004 0.031,17.99218 1.99988,-0.004 -0.0186,-10.68462 2.98173,10.63915 v 0.0357 l 1.99988,0.002 0.0196,-17.98444 z m 28.94707,0.0351 -0.0233,17.97926 1.99987,0.002 0.0233,-17.97926 z m 7.05745,7.58558 c 0.56895,1.19777 1.24371,2.38789 1.99988,3.52123 l -2.01642,0.0186 z" />
  </g>
</svg>
