<?xml version="1.0" encoding="UTF-8" standalone="no"?>
<!-- Created with Inkscape (http://www.inkscape.org/) -->

<svg
   width="23.892597mm"
   height="19.999813mm"
   viewBox="0 0 23.892597 19.999813"
   version="1.1"
   id="svg1"
   xmlns="http://www.w3.org/2000/svg"
   xmlns:svg="http://www.w3.org/2000/svg">
  <defs
     id="defs1" />
  <g
     id="layer1"
     transform="translate(-376.69532,-250.90551)">
    <g
       id="g55-6-4-2-1-16-5-2"
       transform="matrix(0.99996782,0,0,0.99996782,47.041678,235.94256)">
      <path
         id="rect23-5-8-30-8-5-5-8-7-0"
         style="fill:#000000;fill-opacity:1;stroke:none;stroke-width:0.98083;stroke-dasharray:none"
         d="m 330.95673,14.963427 c -0.71599,0 -1.29247,0.575482 -1.29247,1.290919 v 17.418102 c 0,0.715436 0.57648,1.291435 1.29247,1.291435 h 17.43102 c 0.71599,0 1.29247,-0.575999 1.29247,-1.291435 v -2.44179 a 3.4165208,3.4165208 0 0 0 0.46097,0.03307 3.4165208,3.4165208 0 0 0 3.41644,-3.416956 3.4165208,3.4165208 0 0 0 -3.41644,-3.416439 3.4165208,3.4165208 0 0 0 -0.46097,0.03307 v -8.209065 c 0,-0.715437 -0.57648,-1.290919 -1.29247,-1.290919 z" />
      <g
         id="g35-1-6-3-9-8-8-5"
         style="fill:#1a1a1a">
        <path
           id="path6-0-5-4-8-0-58-9-4-7-6-1-0-9-6-0-2-2-5"
           style="fill:#ffffff;stroke:none;stroke-width:1.02669"
           d="m 333.25399,16.94933 v 11.448853 a 2.3700187,2.3700187 0 0 0 -1.66986,2.261969 2.3700187,2.3700187 0 0 0 2.36992,2.370218 2.3700187,2.3700187 0 0 0 2.36992,-2.370218 2.3700187,2.3700187 0 0 0 -1.64028,-2.254279 V 16.94933 Z"
           transform="translate(1.6931421e-6)" />
        <path
           id="path6-0-5-4-8-0-58-9-4-7-6-7-0-1-7-3-8-7-7-2"
           style="fill:#ffffff;stroke-width:1.07735"
           d="m 246.77157,20.103657 v 12.013467 a 2.486963,2.486963 0 0 0 -1.75288,2.373892 2.486963,2.486963 0 0 0 2.48687,2.486861 2.486963,2.486963 0 0 0 2.48717,-2.486861 2.486963,2.486963 0 0 0 -1.72122,-2.365202 V 20.103657 Z"
           transform="matrix(0.95297702,0,0,0.95297702,103.80664,-2.1882897)" />
        <path
           id="path6-0-5-4-8-0-3-5-4-2-8-3-5-5-2-3-71-8-7"
           style="fill:#ffffff;fill-opacity:1;stroke:none;stroke-width:1.03333"
           d="m 344.65434,16.953175 c 0,1.045332 -0.0721,3.030779 0.45695,5.085882 0.43025,1.671466 1.28909,3.425559 2.9079,4.717365 a 2.3853664,2.3853664 0 0 0 -0.25346,1.060298 2.3853664,2.3853664 0 0 0 2.3853,2.385597 2.3853664,2.3853664 0 0 0 2.3853,-2.385597 2.3853664,2.3853664 0 0 0 -2.3853,-2.385301 2.3853664,2.3853664 0 0 0 -1.13424,0.293985 c -1.41232,-1.066976 -2.13141,-2.531099 -2.52076,-4.043625 -0.46538,-1.807917 -0.41199,-3.62862 -0.41199,-4.728604 z"
           transform="translate(1.6931421e-6)" />
      </g>
    </g>
  </g>
</svg>
